<mxfile host="65bd71144e">
    <diagram id="1WU1DViDdpHLbGFzViwP" name="Page-1">
        <mxGraphModel dx="2104" dy="1174" grid="0" gridSize="10" guides="1" tooltips="1" connect="1" arrows="1" fold="1" page="0" pageScale="1" pageWidth="827" pageHeight="1169" math="0" shadow="0">
            <root>
                <mxCell id="0"/>
                <mxCell id="1" parent="0"/>
                <mxCell id="17" value="CppExtension" style="verticalAlign=top;align=left;spacingTop=8;spacingLeft=2;spacingRight=12;shape=cube;size=10;direction=south;fontStyle=4;html=1;rounded=0;labelBorderColor=none;fontFamily=JetBrains Mono;strokeColor=default;gradientColor=none;" parent="1" vertex="1">
                    <mxGeometry x="-343" y="256" width="180" height="120" as="geometry"/>
                </mxCell>
                <mxCell id="96" style="edgeStyle=none;html=1;exitX=0.5;exitY=0;exitDx=0;exitDy=0;entryX=1;entryY=1;entryDx=0;entryDy=0;entryPerimeter=0;fontFamily=JetBrains Mono;fontSize=18;startArrow=none;startFill=0;endArrow=classic;endFill=1;startSize=9;endSize=9;strokeWidth=1;" parent="1" source="29" target="17" edge="1">
                    <mxGeometry relative="1" as="geometry"/>
                </mxCell>
                <mxCell id="29" value="«interface»&lt;br&gt;&lt;b&gt;class TargetChord&lt;/b&gt;&lt;b&gt;&amp;nbsp;: RefCounted&lt;/b&gt;" style="swimlane;fontStyle=0;childLayout=stackLayout;horizontal=1;startSize=40;fillColor=default;horizontalStack=0;resizeParent=1;resizeParentMax=0;resizeLast=0;collapsible=0;marginBottom=0;labelBackgroundColor=none;labelBorderColor=none;comic=0;fontFamily=JetBrains Mono;fontSize=12;html=1;" parent="1" vertex="1">
                    <mxGeometry x="-573" y="455" width="280" height="142" as="geometry">
                        <mxRectangle x="90" y="520" width="100" height="26" as="alternateBounds"/>
                    </mxGeometry>
                </mxCell>
                <mxCell id="32" value="&lt;div style=&quot;text-align: center ; color: rgb(212 , 212 , 212) ; font-family: &amp;#34;jetbrains mono&amp;#34; , &amp;#34;menlo&amp;#34; , &amp;#34;monaco&amp;#34; , &amp;#34;courier new&amp;#34; , monospace ; line-height: 18px&quot;&gt;&lt;span style=&quot;color: #6affe4&quot;&gt;&amp;lt;&amp;lt;constructor&amp;gt;&amp;gt;&lt;/span&gt;&lt;/div&gt;&lt;div style=&quot;color: rgb(212 , 212 , 212) ; font-family: &amp;#34;jetbrains mono&amp;#34; , &amp;#34;menlo&amp;#34; , &amp;#34;monaco&amp;#34; , &amp;#34;courier new&amp;#34; , monospace ; line-height: 18px&quot;&gt;&lt;span style=&quot;color: #6affe4&quot;&gt;TargetChord&lt;/span&gt;&lt;span style=&quot;color: #66e6fa&quot;&gt;(&lt;/span&gt;&lt;span style=&quot;color: #4ec9b0&quot;&gt;Key&lt;/span&gt;&lt;span style=&quot;color: #66e6fa&quot;&gt; &lt;/span&gt;&lt;span style=&quot;color: #9cdcfe&quot;&gt;key&lt;/span&gt;&lt;span style=&quot;color: #66e6fa&quot;&gt;, &lt;/span&gt;&lt;span style=&quot;color: #4ec9b0&quot;&gt;ChordList&lt;/span&gt;&lt;span style=&quot;color: #66e6fa&quot;&gt; &lt;/span&gt;&lt;span style=&quot;color: #9cdcfe&quot;&gt;chord&lt;/span&gt;&lt;span style=&quot;color: #66e6fa&quot;&gt;)&lt;/span&gt;&lt;/div&gt;" style="text;strokeColor=none;fillColor=default;align=left;verticalAlign=top;spacingLeft=4;spacingRight=4;overflow=hidden;rotatable=0;points=[[0,0.5],[1,0.5]];portConstraint=eastwest;labelBackgroundColor=none;labelBorderColor=none;comic=0;fontFamily=JetBrains Mono;fontSize=12;html=1;" parent="29" vertex="1">
                    <mxGeometry y="40" width="280" height="50" as="geometry"/>
                </mxCell>
                <mxCell id="30" value="&lt;span style=&quot;font-family: &amp;#34;jetbrains mono&amp;#34; , &amp;#34;menlo&amp;#34; , &amp;#34;monaco&amp;#34; , &amp;#34;courier new&amp;#34; , monospace ; color: rgb(173 , 125 , 228)&quot;&gt;get_chord_name&lt;/span&gt;&lt;span style=&quot;font-family: &amp;#34;jetbrains mono&amp;#34; , &amp;#34;menlo&amp;#34; , &amp;#34;monaco&amp;#34; , &amp;#34;courier new&amp;#34; , monospace ; color: rgb(102 , 230 , 250)&quot;&gt;()&lt;/span&gt;&amp;nbsp;:&amp;nbsp;&lt;span style=&quot;color: rgb(106 , 255 , 228) ; font-family: &amp;#34;jetbrains mono&amp;#34; , &amp;#34;menlo&amp;#34; , &amp;#34;monaco&amp;#34; , &amp;#34;courier new&amp;#34; , monospace&quot;&gt;String&lt;/span&gt;" style="text;strokeColor=none;fillColor=default;align=left;verticalAlign=top;spacingLeft=4;spacingRight=4;overflow=hidden;rotatable=0;points=[[0,0.5],[1,0.5]];portConstraint=eastwest;labelBackgroundColor=none;labelBorderColor=none;comic=0;fontFamily=JetBrains Mono;fontSize=12;html=1;" parent="29" vertex="1">
                    <mxGeometry y="90" width="280" height="26" as="geometry"/>
                </mxCell>
                <mxCell id="31" value="&lt;div style=&quot;color: rgb(212 , 212 , 212) ; font-family: &amp;#34;jetbrains mono&amp;#34; , &amp;#34;menlo&amp;#34; , &amp;#34;monaco&amp;#34; , &amp;#34;courier new&amp;#34; , monospace ; line-height: 18px&quot;&gt;&lt;span style=&quot;color: #ad7de4&quot;&gt;compare&lt;/span&gt;&lt;span style=&quot;color: #66e6fa&quot;&gt;(&lt;/span&gt;&lt;span style=&quot;color: #6affe4&quot;&gt;HearableChord&lt;/span&gt;&lt;span style=&quot;color: #66e6fa&quot;&gt; &lt;/span&gt;&lt;span style=&quot;color: #9cdcfe&quot;&gt;chord&lt;/span&gt;&lt;span style=&quot;color: #66e6fa&quot;&gt;) :&amp;nbsp;&lt;/span&gt;&lt;span style=&quot;color: rgb(197 , 134 , 192) ; font-family: &amp;#34;jetbrains mono&amp;#34; , &amp;#34;menlo&amp;#34; , &amp;#34;monaco&amp;#34; , &amp;#34;courier new&amp;#34; , monospace&quot;&gt;bool&lt;/span&gt;&lt;/div&gt;" style="text;strokeColor=none;fillColor=default;align=left;verticalAlign=top;spacingLeft=4;spacingRight=4;overflow=hidden;rotatable=0;points=[[0,0.5],[1,0.5]];portConstraint=eastwest;labelBackgroundColor=none;labelBorderColor=none;comic=0;fontFamily=JetBrains Mono;fontSize=12;html=1;" parent="29" vertex="1">
                    <mxGeometry y="116" width="280" height="26" as="geometry"/>
                </mxCell>
                <mxCell id="97" style="edgeStyle=none;html=1;exitX=0.5;exitY=0;exitDx=0;exitDy=0;entryX=0;entryY=0;entryDx=119.99999999999999;entryDy=95;entryPerimeter=0;fontFamily=JetBrains Mono;fontSize=18;startArrow=none;startFill=0;endArrow=classic;endFill=1;startSize=9;endSize=9;strokeWidth=1;" parent="1" source="33" target="17" edge="1">
                    <mxGeometry relative="1" as="geometry"/>
                </mxCell>
                <mxCell id="33" value="«interface»&lt;br&gt;&lt;b&gt;class HearableChord&lt;/b&gt;&lt;b&gt;&amp;nbsp;: RefCounted&lt;/b&gt;" style="swimlane;fontStyle=0;childLayout=stackLayout;horizontal=1;startSize=40;fillColor=default;horizontalStack=0;resizeParent=1;resizeParentMax=0;resizeLast=0;collapsible=0;marginBottom=0;labelBackgroundColor=none;labelBorderColor=none;comic=0;fontFamily=JetBrains Mono;fontSize=12;html=1;" parent="1" vertex="1">
                    <mxGeometry x="-467" y="620" width="410" height="142" as="geometry">
                        <mxRectangle x="90" y="520" width="100" height="26" as="alternateBounds"/>
                    </mxGeometry>
                </mxCell>
                <mxCell id="34" value="&lt;div style=&quot;text-align: center ; color: rgb(212 , 212 , 212) ; font-family: &amp;#34;jetbrains mono&amp;#34; , &amp;#34;menlo&amp;#34; , &amp;#34;monaco&amp;#34; , &amp;#34;courier new&amp;#34; , monospace ; line-height: 18px&quot;&gt;&lt;span style=&quot;color: #6affe4&quot;&gt;&amp;lt;&amp;lt;constructor&amp;gt;&amp;gt;&lt;/span&gt;&lt;/div&gt;&lt;div style=&quot;color: rgb(212 , 212 , 212) ; font-family: &amp;#34;jetbrains mono&amp;#34; , &amp;#34;menlo&amp;#34; , &amp;#34;monaco&amp;#34; , &amp;#34;courier new&amp;#34; , monospace ; line-height: 18px&quot;&gt;&lt;div style=&quot;font-family: &amp;#34;jetbrains mono&amp;#34; , &amp;#34;menlo&amp;#34; , &amp;#34;monaco&amp;#34; , &amp;#34;courier new&amp;#34; , monospace ; line-height: 18px&quot;&gt;&lt;span style=&quot;color: #6affe4&quot;&gt;HearableChord&lt;/span&gt;&lt;span style=&quot;color: #66e6fa&quot;&gt;(&lt;/span&gt;&lt;span style=&quot;color: #c586c0&quot;&gt;int&lt;/span&gt;&lt;span style=&quot;color: #66e6fa&quot;&gt; &lt;/span&gt;&lt;span style=&quot;color: #9cdcfe&quot;&gt;root&lt;/span&gt;&lt;span style=&quot;color: #66e6fa&quot;&gt;, &lt;/span&gt;&lt;span style=&quot;color: #c586c0&quot;&gt;int&lt;/span&gt;&lt;span style=&quot;color: #66e6fa&quot;&gt; &lt;/span&gt;&lt;span style=&quot;color: #9cdcfe&quot;&gt;quality&lt;/span&gt;&lt;span style=&quot;color: #66e6fa&quot;&gt;, &lt;/span&gt;&lt;span style=&quot;color: #c586c0&quot;&gt;int&lt;/span&gt;&lt;span style=&quot;color: #66e6fa&quot;&gt; &lt;/span&gt;&lt;span style=&quot;color: #9cdcfe&quot;&gt;intervals&lt;/span&gt;&lt;span style=&quot;color: #66e6fa&quot;&gt;);&lt;/span&gt;&lt;/div&gt;&lt;/div&gt;" style="text;strokeColor=none;fillColor=default;align=left;verticalAlign=top;spacingLeft=4;spacingRight=4;overflow=hidden;rotatable=0;points=[[0,0.5],[1,0.5]];portConstraint=eastwest;labelBackgroundColor=none;labelBorderColor=none;comic=0;fontFamily=JetBrains Mono;fontSize=12;html=1;" parent="33" vertex="1">
                    <mxGeometry y="40" width="410" height="50" as="geometry"/>
                </mxCell>
                <mxCell id="35" value="&lt;div style=&quot;color: rgb(212 , 212 , 212) ; font-family: &amp;#34;jetbrains mono&amp;#34; , &amp;#34;menlo&amp;#34; , &amp;#34;monaco&amp;#34; , &amp;#34;courier new&amp;#34; , monospace ; line-height: 18px&quot;&gt;&lt;span style=&quot;color: #ad7de4&quot;&gt;add_notes&lt;/span&gt;&lt;span style=&quot;color: #66e6fa&quot;&gt;(&lt;/span&gt;&lt;span style=&quot;color: #c586c0&quot;&gt;int&lt;/span&gt;&lt;span style=&quot;color: #66e6fa&quot;&gt; &lt;/span&gt;&lt;span style=&quot;color: #9cdcfe&quot;&gt;root&lt;/span&gt;&lt;span style=&quot;color: #66e6fa&quot;&gt;, &lt;/span&gt;&lt;span style=&quot;color: #c586c0&quot;&gt;int&lt;/span&gt;&lt;span style=&quot;color: #66e6fa&quot;&gt; &lt;/span&gt;&lt;span style=&quot;color: #9cdcfe&quot;&gt;quality&lt;/span&gt;&lt;span style=&quot;color: #66e6fa&quot;&gt;, &lt;/span&gt;&lt;span style=&quot;color: #c586c0&quot;&gt;int&lt;/span&gt;&lt;span style=&quot;color: #66e6fa&quot;&gt; &lt;/span&gt;&lt;span style=&quot;color: #9cdcfe&quot;&gt;intervals&lt;/span&gt;&lt;span style=&quot;color: #66e6fa&quot;&gt;) :&amp;nbsp;&lt;/span&gt;&lt;span style=&quot;color: rgb(197 , 134 , 192) ; font-family: &amp;#34;jetbrains mono&amp;#34; , &amp;#34;menlo&amp;#34; , &amp;#34;monaco&amp;#34; , &amp;#34;courier new&amp;#34; , monospace&quot;&gt;void&lt;/span&gt;&lt;/div&gt;" style="text;strokeColor=none;fillColor=default;align=left;verticalAlign=top;spacingLeft=4;spacingRight=4;overflow=hidden;rotatable=0;points=[[0,0.5],[1,0.5]];portConstraint=eastwest;labelBackgroundColor=none;labelBorderColor=none;comic=0;fontFamily=JetBrains Mono;fontSize=12;html=1;" parent="33" vertex="1">
                    <mxGeometry y="90" width="410" height="26" as="geometry"/>
                </mxCell>
                <mxCell id="36" value="&lt;div style=&quot;color: rgb(212 , 212 , 212) ; font-family: &amp;#34;jetbrains mono&amp;#34; , &amp;#34;menlo&amp;#34; , &amp;#34;monaco&amp;#34; , &amp;#34;courier new&amp;#34; , monospace ; line-height: 18px&quot;&gt;&lt;span style=&quot;color: #ad7de4&quot;&gt;compare&lt;/span&gt;&lt;span style=&quot;color: #66e6fa&quot;&gt;(&lt;/span&gt;&lt;span style=&quot;color: #6affe4&quot;&gt;HearableChord&lt;/span&gt;&lt;span style=&quot;color: #66e6fa&quot;&gt; &lt;/span&gt;&lt;span style=&quot;color: #9cdcfe&quot;&gt;chord&lt;/span&gt;&lt;span style=&quot;color: #66e6fa&quot;&gt;) :&amp;nbsp;&lt;/span&gt;&lt;span style=&quot;color: rgb(197 , 134 , 192) ; font-family: &amp;#34;jetbrains mono&amp;#34; , &amp;#34;menlo&amp;#34; , &amp;#34;monaco&amp;#34; , &amp;#34;courier new&amp;#34; , monospace&quot;&gt;bool&lt;/span&gt;&lt;/div&gt;" style="text;strokeColor=none;fillColor=default;align=left;verticalAlign=top;spacingLeft=4;spacingRight=4;overflow=hidden;rotatable=0;points=[[0,0.5],[1,0.5]];portConstraint=eastwest;labelBackgroundColor=none;labelBorderColor=none;comic=0;fontFamily=JetBrains Mono;fontSize=12;html=1;" parent="33" vertex="1">
                    <mxGeometry y="116" width="410" height="26" as="geometry"/>
                </mxCell>
                <mxCell id="99" style="edgeStyle=none;html=1;exitX=0;exitY=0.5;exitDx=0;exitDy=0;entryX=0;entryY=0;entryDx=0;entryDy=0;entryPerimeter=0;fontFamily=JetBrains Mono;fontSize=18;startArrow=none;startFill=0;endArrow=classic;endFill=1;startSize=9;endSize=9;strokeWidth=1;" parent="1" source="71" target="17" edge="1">
                    <mxGeometry relative="1" as="geometry"/>
                </mxCell>
                <mxCell id="71" value="«interface»&lt;br&gt;&lt;b&gt;class ChordInfo : RefCounted&lt;/b&gt;" style="swimlane;fontStyle=0;childLayout=stackLayout;horizontal=1;startSize=40;fillColor=default;horizontalStack=0;resizeParent=1;resizeParentMax=0;resizeLast=0;collapsible=0;marginBottom=0;labelBackgroundColor=none;labelBorderColor=none;comic=0;fontFamily=JetBrains Mono;fontSize=12;html=1;" parent="1" vertex="1">
                    <mxGeometry x="-43" y="95" width="430" height="180" as="geometry">
                        <mxRectangle x="90" y="520" width="100" height="26" as="alternateBounds"/>
                    </mxGeometry>
                </mxCell>
                <mxCell id="72" value="&lt;div style=&quot;color: rgb(212 , 212 , 212) ; font-family: &amp;#34;jetbrains mono&amp;#34; , &amp;#34;menlo&amp;#34; , &amp;#34;monaco&amp;#34; , &amp;#34;courier new&amp;#34; , monospace ; line-height: 18px&quot;&gt;&lt;span style=&quot;color: #6affe4&quot;&gt;&amp;lt;&amp;lt;constructor&amp;gt;&amp;gt;&lt;/span&gt;&lt;/div&gt;&lt;div style=&quot;color: rgb(212 , 212 , 212) ; font-family: &amp;#34;jetbrains mono&amp;#34; , &amp;#34;menlo&amp;#34; , &amp;#34;monaco&amp;#34; , &amp;#34;courier new&amp;#34; , monospace ; line-height: 18px&quot;&gt;&lt;div style=&quot;font-family: &amp;#34;jetbrains mono&amp;#34; , &amp;#34;menlo&amp;#34; , &amp;#34;monaco&amp;#34; , &amp;#34;courier new&amp;#34; , monospace ; line-height: 18px&quot;&gt;&lt;span style=&quot;color: #6affe4&quot;&gt;ChordInfo&lt;/span&gt;&lt;span style=&quot;color: #66e6fa&quot;&gt;()&lt;/span&gt;&lt;/div&gt;&lt;/div&gt;" style="text;strokeColor=none;fillColor=default;align=center;verticalAlign=top;spacingLeft=4;spacingRight=4;overflow=hidden;rotatable=0;points=[[0,0.5],[1,0.5]];portConstraint=eastwest;labelBackgroundColor=none;labelBorderColor=none;comic=0;fontFamily=JetBrains Mono;fontSize=12;html=1;" parent="71" vertex="1">
                    <mxGeometry y="40" width="430" height="50" as="geometry"/>
                </mxCell>
                <mxCell id="73" value="&lt;div style=&quot;color: rgb(212 , 212 , 212) ; font-family: &amp;#34;jetbrains mono&amp;#34; , &amp;#34;menlo&amp;#34; , &amp;#34;monaco&amp;#34; , &amp;#34;courier new&amp;#34; , monospace ; line-height: 18px&quot;&gt;&lt;div&gt;&lt;span style=&quot;color: #c586c0&quot;&gt;bool&lt;/span&gt;&lt;span style=&quot;color: #66e6fa&quot;&gt; &lt;/span&gt;&lt;span style=&quot;color: #ad7de4&quot;&gt;calculate_result&lt;/span&gt;&lt;span style=&quot;color: #66e6fa&quot;&gt;(&lt;/span&gt;&lt;span style=&quot;color: #4ec9b0&quot;&gt;godot&lt;/span&gt;&lt;span style=&quot;color: #66e6fa&quot;&gt;::&lt;/span&gt;&lt;span style=&quot;color: #6affe4&quot;&gt;PackedVector2Array&lt;/span&gt;&lt;span style=&quot;color: #66e6fa&quot;&gt; &lt;/span&gt;&lt;span style=&quot;color: #9cdcfe&quot;&gt;buffer&lt;/span&gt;&lt;span style=&quot;color: #66e6fa&quot;&gt;,&lt;/span&gt;&lt;/div&gt;&lt;div&gt;&lt;span style=&quot;color: #66e6fa&quot;&gt;                              &lt;/span&gt;&lt;span style=&quot;color: #c586c0&quot;&gt;&lt;span style=&quot;white-space: pre&quot;&gt;&#9;&lt;/span&gt;int&lt;/span&gt;&lt;span style=&quot;color: #66e6fa&quot;&gt; &lt;/span&gt;&lt;span style=&quot;color: #9cdcfe&quot;&gt;samples_count&lt;/span&gt;&lt;span style=&quot;color: #66e6fa&quot;&gt;, &lt;/span&gt;&lt;span style=&quot;color: #c586c0&quot;&gt;int&lt;/span&gt;&lt;span style=&quot;color: #66e6fa&quot;&gt; &lt;/span&gt;&lt;span style=&quot;color: #9cdcfe&quot;&gt;frame_size&lt;/span&gt;&lt;span style=&quot;color: #66e6fa&quot;&gt;,&lt;/span&gt;&lt;/div&gt;&lt;div&gt;&lt;span style=&quot;color: #66e6fa&quot;&gt;                              &lt;/span&gt;&lt;span style=&quot;color: #c586c0&quot;&gt;&lt;span style=&quot;white-space: pre&quot;&gt;&#9;&lt;/span&gt;int&lt;/span&gt;&lt;span style=&quot;color: #66e6fa&quot;&gt; &lt;/span&gt;&lt;span style=&quot;color: #9cdcfe&quot;&gt;sample_rate&lt;/span&gt;&lt;span style=&quot;color: #66e6fa&quot;&gt;, &lt;/span&gt;&lt;span style=&quot;color: #4ec9b0&quot;&gt;godot&lt;/span&gt;&lt;span style=&quot;color: #66e6fa&quot;&gt;::&lt;/span&gt;&lt;span style=&quot;color: #6affe4&quot;&gt;Ref&lt;/span&gt;&lt;span style=&quot;color: #66e6fa&quot;&gt;&amp;lt;&lt;/span&gt;&lt;span style=&quot;color: #6affe4&quot;&gt;TargetChord&lt;/span&gt;&lt;span style=&quot;color: #66e6fa&quot;&gt;&amp;gt; &lt;/span&gt;&lt;span style=&quot;color: #9cdcfe&quot;&gt;chord&lt;/span&gt;&lt;span style=&quot;color: #66e6fa&quot;&gt;,&lt;/span&gt;&lt;/div&gt;&lt;div&gt;&lt;span style=&quot;color: #66e6fa&quot;&gt;                              &lt;/span&gt;&lt;span style=&quot;color: #c586c0&quot;&gt;&lt;span style=&quot;white-space: pre&quot;&gt;&#9;&lt;/span&gt;int&lt;/span&gt;&lt;span style=&quot;color: #66e6fa&quot;&gt; &lt;/span&gt;&lt;span style=&quot;color: #9cdcfe&quot;&gt;calculation_interval&lt;/span&gt;&lt;span style=&quot;color: #66e6fa&quot;&gt; &lt;/span&gt;&lt;span style=&quot;color: #dedfe0&quot;&gt;=&lt;/span&gt;&lt;span style=&quot;color: #66e6fa&quot;&gt; &lt;/span&gt;&lt;span style=&quot;color: #a0ffdf&quot;&gt;8192&lt;/span&gt;&lt;span style=&quot;color: #66e6fa&quot;&gt;);&lt;/span&gt;&lt;/div&gt;&lt;/div&gt;" style="text;strokeColor=none;fillColor=default;align=left;verticalAlign=top;spacingLeft=4;spacingRight=4;overflow=hidden;rotatable=0;points=[[0,0.5],[1,0.5]];portConstraint=eastwest;labelBackgroundColor=none;labelBorderColor=none;comic=0;fontFamily=JetBrains Mono;fontSize=12;html=1;" parent="71" vertex="1">
                    <mxGeometry y="90" width="430" height="90" as="geometry"/>
                </mxCell>
                <mxCell id="95" style="edgeStyle=none;html=1;exitX=1;exitY=0.5;exitDx=0;exitDy=0;entryX=0;entryY=0.5;entryDx=0;entryDy=0;fontFamily=JetBrains Mono;fontSize=18;endArrow=none;endFill=0;endSize=9;strokeWidth=1;startArrow=classic;startFill=1;startSize=9;" parent="1" source="76" target="87" edge="1">
                    <mxGeometry relative="1" as="geometry"/>
                </mxCell>
                <mxCell id="76" value="«interface»&lt;br&gt;&lt;b&gt;class Neck&lt;/b&gt;&lt;b&gt;&amp;nbsp;: RefCounted&lt;/b&gt;" style="swimlane;fontStyle=0;childLayout=stackLayout;horizontal=1;startSize=40;fillColor=#1ba1e2;horizontalStack=0;resizeParent=1;resizeParentMax=0;resizeLast=0;collapsible=0;marginBottom=0;labelBackgroundColor=none;labelBorderColor=none;comic=0;fontFamily=JetBrains Mono;fontSize=12;html=1;fontColor=#ffffff;strokeColor=#006EAF;" parent="1" vertex="1">
                    <mxGeometry x="224" y="356" width="394" height="173" as="geometry">
                        <mxRectangle x="90" y="520" width="100" height="26" as="alternateBounds"/>
                    </mxGeometry>
                </mxCell>
                <mxCell id="77" value="&lt;div style=&quot;color: rgb(212 , 212 , 212) ; font-family: &amp;#34;jetbrains mono&amp;#34; , &amp;#34;menlo&amp;#34; , &amp;#34;monaco&amp;#34; , &amp;#34;courier new&amp;#34; , monospace ; line-height: 18px&quot;&gt;&lt;span style=&quot;color: #6affe4&quot;&gt;&amp;lt;&amp;lt;constructor&amp;gt;&amp;gt;&lt;/span&gt;&lt;/div&gt;&lt;div style=&quot;color: rgb(212 , 212 , 212) ; font-family: &amp;#34;jetbrains mono&amp;#34; , &amp;#34;menlo&amp;#34; , &amp;#34;monaco&amp;#34; , &amp;#34;courier new&amp;#34; , monospace ; line-height: 18px&quot;&gt;&lt;div style=&quot;font-family: &amp;#34;jetbrains mono&amp;#34; , &amp;#34;menlo&amp;#34; , &amp;#34;monaco&amp;#34; , &amp;#34;courier new&amp;#34; , monospace ; line-height: 18px&quot;&gt;&lt;span style=&quot;color: #6affe4&quot;&gt;Neck&lt;/span&gt;&lt;span style=&quot;color: #66e6fa&quot;&gt;()&lt;/span&gt;&lt;/div&gt;&lt;/div&gt;" style="text;strokeColor=none;fillColor=default;align=center;verticalAlign=top;spacingLeft=4;spacingRight=4;overflow=hidden;rotatable=0;points=[[0,0.5],[1,0.5]];portConstraint=eastwest;labelBackgroundColor=none;labelBorderColor=none;comic=0;fontFamily=JetBrains Mono;fontSize=12;html=1;" parent="76" vertex="1">
                    <mxGeometry y="40" width="394" height="45" as="geometry"/>
                </mxCell>
                <mxCell id="78" value="&lt;div style=&quot;font-family: &amp;#34;jetbrains mono&amp;#34; , &amp;#34;menlo&amp;#34; , &amp;#34;monaco&amp;#34; , &amp;#34;courier new&amp;#34; , monospace ; line-height: 18px&quot;&gt;&lt;span style=&quot;color: rgb(173 , 125 , 228)&quot;&gt;get_values&lt;/span&gt;&lt;font color=&quot;#66e6fa&quot;&gt;() : &lt;/font&gt;&lt;font color=&quot;#6affe4&quot;&gt;Dictionary&lt;/font&gt;&lt;font color=&quot;#66e6fa&quot;&gt;&amp;nbsp;&lt;/font&gt;&lt;/div&gt;" style="text;strokeColor=none;fillColor=default;align=left;verticalAlign=top;spacingLeft=4;spacingRight=4;overflow=hidden;rotatable=0;points=[[0,0.5],[1,0.5]];portConstraint=eastwest;labelBackgroundColor=none;labelBorderColor=none;comic=0;fontFamily=JetBrains Mono;fontSize=12;html=1;" parent="76" vertex="1">
                    <mxGeometry y="85" width="394" height="30" as="geometry"/>
                </mxCell>
                <mxCell id="79" value="&lt;div style=&quot;color: rgb(212 , 212 , 212) ; font-family: &amp;#34;jetbrains mono&amp;#34; , &amp;#34;menlo&amp;#34; , &amp;#34;monaco&amp;#34; , &amp;#34;courier new&amp;#34; , monospace ; line-height: 18px&quot;&gt;&lt;div style=&quot;font-family: &amp;#34;jetbrains mono&amp;#34; , &amp;#34;menlo&amp;#34; , &amp;#34;monaco&amp;#34; , &amp;#34;courier new&amp;#34; , monospace ; line-height: 18px&quot;&gt;&lt;span style=&quot;color: #ad7de4&quot;&gt;initialize_chords&lt;/span&gt;&lt;span style=&quot;color: #66e6fa&quot;&gt;(&lt;/span&gt;&lt;span style=&quot;color: #4ec9b0&quot;&gt;godot&lt;/span&gt;&lt;span style=&quot;color: #66e6fa&quot;&gt;::&lt;/span&gt;&lt;span style=&quot;color: #6affe4&quot;&gt;PackedInt32Array&lt;/span&gt;&lt;span style=&quot;color: #66e6fa&quot;&gt; &lt;/span&gt;&lt;span style=&quot;color: #9cdcfe&quot;&gt;keys&lt;/span&gt;&lt;span style=&quot;color: #66e6fa&quot;&gt;) :&amp;nbsp;&lt;/span&gt;&lt;span style=&quot;color: rgb(197 , 134 , 192) ; font-family: &amp;#34;jetbrains mono&amp;#34; , &amp;#34;menlo&amp;#34; , &amp;#34;monaco&amp;#34; , &amp;#34;courier new&amp;#34; , monospace&quot;&gt;int&lt;/span&gt;&lt;/div&gt;&lt;/div&gt;" style="text;strokeColor=none;fillColor=default;align=left;verticalAlign=top;spacingLeft=4;spacingRight=4;overflow=hidden;rotatable=0;points=[[0,0.5],[1,0.5]];portConstraint=eastwest;labelBackgroundColor=none;labelBorderColor=none;comic=0;fontFamily=JetBrains Mono;fontSize=12;html=1;" parent="76" vertex="1">
                    <mxGeometry y="115" width="394" height="27" as="geometry"/>
                </mxCell>
                <mxCell id="82" value="&lt;div style=&quot;color: rgb(212 , 212 , 212) ; font-family: &amp;#34;jetbrains mono&amp;#34; , &amp;#34;menlo&amp;#34; , &amp;#34;monaco&amp;#34; , &amp;#34;courier new&amp;#34; , monospace ; line-height: 18px&quot;&gt;&lt;span style=&quot;color: #ad7de4&quot;&gt;get_next&lt;/span&gt;&lt;span style=&quot;color: #66e6fa&quot;&gt;() :&amp;nbsp;&lt;/span&gt;&lt;span style=&quot;color: rgb(106 , 255 , 228)&quot;&gt;TargetChord&lt;/span&gt;&lt;/div&gt;" style="text;strokeColor=none;fillColor=none;align=left;verticalAlign=top;spacingLeft=4;spacingRight=4;overflow=hidden;rotatable=0;points=[[0,0.5],[1,0.5]];portConstraint=eastwest;labelBackgroundColor=none;labelBorderColor=none;comic=0;fontFamily=JetBrains Mono;fontSize=12;fontColor=#6AFFE4;startSize=40;html=1;" parent="76" vertex="1">
                    <mxGeometry y="142" width="394" height="31" as="geometry"/>
                </mxCell>
                <mxCell id="84" value="MainMenu&lt;br&gt;(root)" style="rounded=0;whiteSpace=wrap;html=1;fontFamily=JetBrains Mono;fontSize=18;" parent="1" vertex="1">
                    <mxGeometry x="1063" y="-192" width="178" height="98" as="geometry"/>
                </mxCell>
                <mxCell id="117" style="edgeStyle=none;html=1;exitX=0.5;exitY=0;exitDx=0;exitDy=0;entryX=1;entryY=0.5;entryDx=0;entryDy=0;" parent="1" source="85" target="84" edge="1">
                    <mxGeometry relative="1" as="geometry"/>
                </mxCell>
                <mxCell id="85" value="SettingsWindow" style="rounded=0;whiteSpace=wrap;html=1;fontFamily=JetBrains Mono;fontSize=18;" parent="1" vertex="1">
                    <mxGeometry x="1199" y="532" width="178" height="98" as="geometry"/>
                </mxCell>
                <mxCell id="88" style="edgeStyle=none;html=1;exitX=0.5;exitY=0;exitDx=0;exitDy=0;entryX=0.5;entryY=1;entryDx=0;entryDy=0;fontFamily=JetBrains Mono;fontSize=18;endArrow=diamond;endFill=1;strokeWidth=1;endSize=9;" parent="1" source="87" target="84" edge="1">
                    <mxGeometry relative="1" as="geometry"/>
                </mxCell>
                <mxCell id="101" style="edgeStyle=none;html=1;exitX=0;exitY=0.25;exitDx=0;exitDy=0;entryX=1;entryY=1;entryDx=0;entryDy=0;fontFamily=JetBrains Mono;fontSize=18;startArrow=none;startFill=0;endArrow=classic;endFill=1;startSize=9;endSize=9;strokeWidth=1;dashed=1;" parent="1" source="87" target="93" edge="1">
                    <mxGeometry relative="1" as="geometry"/>
                </mxCell>
                <mxCell id="87" value="Workspace" style="rounded=0;whiteSpace=wrap;html=1;fontFamily=JetBrains Mono;fontSize=18;strokeWidth=1;" parent="1" vertex="1">
                    <mxGeometry x="1074" y="182" width="178" height="98" as="geometry"/>
                </mxCell>
                <mxCell id="92" style="edgeStyle=none;html=1;exitX=0.25;exitY=0;exitDx=0;exitDy=0;entryX=0.75;entryY=1;entryDx=0;entryDy=0;fontFamily=JetBrains Mono;fontSize=18;endArrow=diamond;endFill=1;endSize=9;strokeWidth=1;" parent="1" source="90" target="84" edge="1">
                    <mxGeometry relative="1" as="geometry"/>
                </mxCell>
                <mxCell id="90" value="AudioGraphicLayer" style="rounded=0;whiteSpace=wrap;html=1;fontFamily=JetBrains Mono;fontSize=18;strokeWidth=1;" parent="1" vertex="1">
                    <mxGeometry x="1360" y="55" width="198" height="98" as="geometry"/>
                </mxCell>
                <mxCell id="94" style="edgeStyle=none;html=1;exitX=1;exitY=0.25;exitDx=0;exitDy=0;entryX=0;entryY=0.75;entryDx=0;entryDy=0;fontFamily=JetBrains Mono;fontSize=18;endArrow=diamond;endFill=1;endSize=9;strokeWidth=1;" parent="1" source="93" target="84" edge="1">
                    <mxGeometry relative="1" as="geometry"/>
                </mxCell>
                <mxCell id="100" style="edgeStyle=none;html=1;exitX=0;exitY=0.5;exitDx=0;exitDy=0;entryX=1;entryY=0.5;entryDx=0;entryDy=0;fontFamily=JetBrains Mono;fontSize=18;startArrow=none;startFill=0;endArrow=classic;endFill=1;startSize=9;endSize=9;strokeWidth=1;" parent="1" source="93" target="71" edge="1">
                    <mxGeometry relative="1" as="geometry"/>
                </mxCell>
                <mxCell id="103" style="edgeStyle=none;html=1;exitX=1;exitY=0.25;exitDx=0;exitDy=0;entryX=0.25;entryY=0;entryDx=0;entryDy=0;dashed=1;fontFamily=JetBrains Mono;fontSize=18;startArrow=none;startFill=0;endArrow=classic;endFill=1;startSize=9;endSize=9;strokeWidth=1;" parent="1" source="93" target="87" edge="1">
                    <mxGeometry relative="1" as="geometry"/>
                </mxCell>
                <mxCell id="93" value="AudioAnalyzerInterface" style="rounded=0;whiteSpace=wrap;html=1;fontFamily=JetBrains Mono;fontSize=18;strokeWidth=1;" parent="1" vertex="1">
                    <mxGeometry x="580" y="-26" width="253" height="98" as="geometry"/>
                </mxCell>
                <mxCell id="98" style="edgeStyle=none;html=1;exitX=0;exitY=0.5;exitDx=0;exitDy=0;entryX=0;entryY=0;entryDx=119.99999999999999;entryDy=10;entryPerimeter=0;fontFamily=JetBrains Mono;fontSize=18;startArrow=none;startFill=0;endArrow=classic;endFill=1;startSize=9;endSize=9;strokeWidth=1;" parent="1" source="78" target="17" edge="1">
                    <mxGeometry relative="1" as="geometry"/>
                </mxCell>
                <mxCell id="102" value="emitting_signal" style="text;html=1;align=center;verticalAlign=middle;resizable=0;points=[];autosize=1;strokeColor=none;fillColor=none;fontFamily=JetBrains Mono;fontSize=18;rotation=30;" parent="1" vertex="1">
                    <mxGeometry x="868" y="95" width="172" height="26" as="geometry"/>
                </mxCell>
                <mxCell id="105" value="emitting_signal" style="text;html=1;align=center;verticalAlign=middle;resizable=0;points=[];autosize=1;strokeColor=none;fillColor=none;fontFamily=JetBrains Mono;fontSize=18;rotation=25;" parent="1" vertex="1">
                    <mxGeometry x="922" y="61" width="172" height="26" as="geometry"/>
                </mxCell>
                <mxCell id="107" value="" style="edgeStyle=none;orthogonalLoop=1;jettySize=auto;html=1;fontFamily=JetBrains Mono;fontSize=18;startArrow=none;startFill=0;endArrow=classic;endFill=1;startSize=9;endSize=9;strokeWidth=1;exitX=0.494;exitY=-0.224;exitDx=0;exitDy=0;exitPerimeter=0;entryX=0.25;entryY=1;entryDx=0;entryDy=0;" parent="1" source="105" target="84" edge="1">
                    <mxGeometry width="120" relative="1" as="geometry">
                        <mxPoint x="988" y="109" as="sourcePoint"/>
                        <mxPoint x="1108" y="109" as="targetPoint"/>
                        <Array as="points"/>
                    </mxGeometry>
                </mxCell>
                <mxCell id="108" value="registered here" style="text;html=1;align=center;verticalAlign=middle;resizable=0;points=[];autosize=1;strokeColor=none;fillColor=none;fontFamily=JetBrains Mono;fontSize=18;rotation=-60;" parent="1" vertex="1">
                    <mxGeometry x="997" y="-26" width="172" height="26" as="geometry"/>
                </mxCell>
                <mxCell id="111" style="edgeStyle=none;html=1;exitX=0.5;exitY=0;exitDx=0;exitDy=0;entryX=0.5;entryY=1;entryDx=0;entryDy=0;" parent="1" source="109" target="87" edge="1">
                    <mxGeometry relative="1" as="geometry"/>
                </mxCell>
                <mxCell id="109" value="ComplexityLevel" style="rounded=0;whiteSpace=wrap;html=1;fontFamily=JetBrains Mono;fontSize=18;strokeWidth=1;" parent="1" vertex="1">
                    <mxGeometry x="1000" y="324" width="178" height="98" as="geometry"/>
                </mxCell>
                <mxCell id="115" style="edgeStyle=none;html=1;exitX=0.5;exitY=0;exitDx=0;exitDy=0;entryX=0.5;entryY=1;entryDx=0;entryDy=0;" parent="1" source="112" target="93" edge="1">
                    <mxGeometry relative="1" as="geometry"/>
                </mxCell>
                <mxCell id="116" style="edgeStyle=none;html=1;exitX=0.75;exitY=1;exitDx=0;exitDy=0;entryX=0;entryY=0.5;entryDx=0;entryDy=0;" parent="1" source="112" target="109" edge="1">
                    <mxGeometry relative="1" as="geometry"/>
                </mxCell>
                <mxCell id="118" style="edgeStyle=none;html=1;exitX=0;exitY=1;exitDx=0;exitDy=0;entryX=0;entryY=1;entryDx=0;entryDy=0;" parent="1" source="112" target="85" edge="1">
                    <mxGeometry relative="1" as="geometry"/>
                </mxCell>
                <mxCell id="112" value="GlobalSettings" style="rounded=0;whiteSpace=wrap;html=1;fontFamily=JetBrains Mono;fontSize=18;strokeWidth=1;fillColor=#d80073;fontColor=#ffffff;strokeColor=#A50040;" parent="1" vertex="1">
                    <mxGeometry x="636" y="156" width="178" height="98" as="geometry"/>
                </mxCell>
            </root>
        </mxGraphModel>
    </diagram>
</mxfile>